<?xml version="1.0" encoding="iso-8859-1"?>
<!-- Generator: Adobe Illustrator 19.0.0, SVG Export Plug-In . SVG Version: 6.00 Build 0)  -->
<svg version="1.1" id="Layer_1" xmlns="http://www.w3.org/2000/svg" xmlns:xlink="http://www.w3.org/1999/xlink" x="0px" y="0px"
	 viewBox="0 0 491.52 491.52" style="enable-background:new 0 0 491.52 491.52;" xml:space="preserve">
<g>
	<g>
		<g>
			<path d="M471.04,274.723h-40.96v-20.48c0-11.311-9.169-20.48-20.48-20.48H81.92c-11.311,0-20.48,9.169-20.48,20.48v20.48H20.48
				c-11.311,0-20.48,9.169-20.48,20.48v81.92c0,11.311,9.169,20.48,20.48,20.48h40.96v20.48c0,11.311,9.169,20.48,20.48,20.48H409.6
				c11.311,0,20.48-9.169,20.48-20.48v-20.48h40.96c11.311,0,20.48-9.169,20.48-20.48v-81.92
				C491.52,283.892,482.351,274.723,471.04,274.723z M450.56,356.643H409.6c-11.311,0-20.48,9.169-20.48,20.48v20.48H102.4v-20.48
				c0-11.311-9.169-20.48-20.48-20.48H40.96v-40.96h40.96c11.311,0,20.48-9.169,20.48-20.48v-20.48h286.72v20.48
				c0,11.311,9.169,20.48,20.48,20.48h40.96V356.643z"/>
			<path d="M169.838,203.774c7.998,7.998,20.965,7.998,28.963,0c7.998-7.998,7.998-20.965,0-28.963
				c-8.017-8.017-8.017-20.957,0-28.975c24.015-23.984,24.015-62.866,0-86.881c-7.998-7.998-20.965-7.998-28.963,0
				c-7.998,7.998-7.998,20.965,0,28.963c8.016,8.016,8.016,20.949,0.009,28.945C145.825,140.886,145.825,179.761,169.838,203.774z"
				/>
			<path d="M284.246,203.774c7.998,7.998,20.965,7.998,28.963,0c7.998-7.998,7.998-20.965,0-28.963
				c-8.017-8.017-8.017-20.957,0-28.975c24.015-23.984,24.015-62.866,0-86.881c-7.998-7.998-20.965-7.998-28.963,0
				s-7.998,20.965,0,28.963c8.016,8.016,8.016,20.949,0.009,28.945C260.233,140.886,260.233,179.761,284.246,203.774z"/>
		</g>
	</g>
</g>
<g>
</g>
<g>
</g>
<g>
</g>
<g>
</g>
<g>
</g>
<g>
</g>
<g>
</g>
<g>
</g>
<g>
</g>
<g>
</g>
<g>
</g>
<g>
</g>
<g>
</g>
<g>
</g>
<g>
</g>
</svg>
